# xmcd
#
# Track frame offsets: 
#        150
#        21367
#        42367
#        63526
#        80901
#        101318
#        123296
#        143534
#        159884
#        179031
#        196364
#        210899
#        226946
#        250183
#        274096
#        295843
#        317616
#
# Disc length: 4517 seconds
#
# Revision: 0
# Processed by: cddbd v1.5.2PL0 Copyright (c) Steve Scherf et al.
# Submitted via: ExactAudioCopy v1.0b1
#
DISCID=ea11a311
DTITLE=龔玥 - 民歌紅 Disc 2
DYEAR=2001
DGENRE=民歌
TTITLE0=今夜無眠
TTITLE1=愛的奉獻
TTITLE2=紅豆紅
TTITLE3=祝酒歌
TTITLE4=九九艷陽天
TTITLE5=説句心裏話
TTITLE6=幸福萬年長
TTITLE7=駝鈴
TTITLE8=月牙泉
TTITLE9=好日子
TTITLE10=好運來
TTITLE11=妻子
TTITLE12=相逢是首歌
TTITLE13=康美之戀
TTITLE14=我要去西藏
TTITLE15=套馬杆
TTITLE16=走天涯
EXTD=
EXTT0=
EXTT1=
EXTT2=
EXTT3=
EXTT4=
EXTT5=
EXTT6=
EXTT7=
EXTT8=
EXTT9=
EXTT10=
EXTT11=
EXTT12=
EXTT13=
EXTT14=
EXTT15=
EXTT16=
PLAYORDER=
